# xmcd CD database file
#
# Track frame offsets:
#	150
#	23852
#	43732
#	62087
#	87487
#	123568
#	141597
#	158883
#
# Disc length: 2386 seconds
#
# Revision: 0
# Processed by: cddbd v1.5.1PL2 Copyright (c) Steve Scherf et al.
# Submitted via: CDex 1.51
#
DISCID=73095008
DTITLE=Jimmy Smith - Got My Mojo Workin
DYEAR=1965
DGENRE=Jazz
TTITLE0=Hi-Heel Sneakers
TTITLE1=(I Can't Get No) Satisfaction
TTITLE2=1-2-3
TTITLE3=Mustard Greens
TTITLE4=Got My Mojo Working
TTITLE5=Johnny Come Lately
TTITLE6=C-Jam Blues
TTITLE7=Hobson's Hop
EXTD=YEAR: 1965
EXTT0=
EXTT1=
EXTT2=
EXTT3=
EXTT4=
EXTT5=
EXTT6=
EXTT7=
PLAYORDER=
